<mxfile host="app.diagrams.net" agent="Mozilla/5.0 (Macintosh; Intel Mac OS X 10_15_7) AppleWebKit/537.36 (KHTML, like Gecko) Chrome/134.0.0.0 Safari/537.36" version="26.1.1">
  <diagram name="Page-1" id="0ShStV4E1VzTJkXko9nK">
    <mxGraphModel dx="1853" dy="621" grid="1" gridSize="10" guides="1" tooltips="1" connect="1" arrows="1" fold="1" page="1" pageScale="1" pageWidth="827" pageHeight="1169" math="0" shadow="0">
      <root>
        <mxCell id="0" />
        <mxCell id="1" parent="0" />
        <mxCell id="DqgkZ39pwk4qr-EJwbW8-1" value="User" style="rounded=0;whiteSpace=wrap;html=1;" vertex="1" parent="1">
          <mxGeometry x="260" y="120" width="120" height="70" as="geometry" />
        </mxCell>
        <mxCell id="DqgkZ39pwk4qr-EJwbW8-2" value="Course" style="rounded=0;whiteSpace=wrap;html=1;" vertex="1" parent="1">
          <mxGeometry x="260" y="290" width="120" height="60" as="geometry" />
        </mxCell>
        <mxCell id="DqgkZ39pwk4qr-EJwbW8-3" value="Module" style="rounded=0;whiteSpace=wrap;html=1;" vertex="1" parent="1">
          <mxGeometry x="260" y="490" width="120" height="60" as="geometry" />
        </mxCell>
        <mxCell id="DqgkZ39pwk4qr-EJwbW8-4" value="Lecture" style="rounded=0;whiteSpace=wrap;html=1;" vertex="1" parent="1">
          <mxGeometry x="260" y="634.5" width="120" height="60" as="geometry" />
        </mxCell>
        <mxCell id="DqgkZ39pwk4qr-EJwbW8-6" value="" style="endArrow=none;html=1;rounded=0;exitX=0.5;exitY=0;exitDx=0;exitDy=0;entryX=0.5;entryY=1;entryDx=0;entryDy=0;startFill=0;" edge="1" parent="1" source="DqgkZ39pwk4qr-EJwbW8-4" target="DqgkZ39pwk4qr-EJwbW8-3">
          <mxGeometry relative="1" as="geometry">
            <mxPoint x="420" y="500" as="sourcePoint" />
            <mxPoint x="580" y="500" as="targetPoint" />
          </mxGeometry>
        </mxCell>
        <mxCell id="DqgkZ39pwk4qr-EJwbW8-8" value="0..N" style="edgeLabel;resizable=0;html=1;;align=left;verticalAlign=bottom;" connectable="0" vertex="1" parent="DqgkZ39pwk4qr-EJwbW8-6">
          <mxGeometry x="-1" relative="1" as="geometry">
            <mxPoint x="10" y="-4" as="offset" />
          </mxGeometry>
        </mxCell>
        <mxCell id="DqgkZ39pwk4qr-EJwbW8-9" value="1" style="edgeLabel;resizable=0;html=1;;align=right;verticalAlign=bottom;" connectable="0" vertex="1" parent="DqgkZ39pwk4qr-EJwbW8-6">
          <mxGeometry x="1" relative="1" as="geometry">
            <mxPoint x="30" y="21" as="offset" />
          </mxGeometry>
        </mxCell>
        <mxCell id="DqgkZ39pwk4qr-EJwbW8-10" value="Resource" style="rounded=0;whiteSpace=wrap;html=1;" vertex="1" parent="1">
          <mxGeometry x="490" y="635" width="120" height="60" as="geometry" />
        </mxCell>
        <mxCell id="DqgkZ39pwk4qr-EJwbW8-11" value="" style="endArrow=none;html=1;rounded=0;exitX=1;exitY=0.5;exitDx=0;exitDy=0;entryX=0;entryY=0.5;entryDx=0;entryDy=0;startFill=0;" edge="1" parent="1" source="DqgkZ39pwk4qr-EJwbW8-4" target="DqgkZ39pwk4qr-EJwbW8-10">
          <mxGeometry relative="1" as="geometry">
            <mxPoint x="413" y="535" as="sourcePoint" />
            <mxPoint x="413" y="450" as="targetPoint" />
          </mxGeometry>
        </mxCell>
        <mxCell id="DqgkZ39pwk4qr-EJwbW8-12" value="1" style="edgeLabel;resizable=0;html=1;;align=left;verticalAlign=bottom;" connectable="0" vertex="1" parent="DqgkZ39pwk4qr-EJwbW8-11">
          <mxGeometry x="-1" relative="1" as="geometry">
            <mxPoint x="10" y="-4" as="offset" />
          </mxGeometry>
        </mxCell>
        <mxCell id="DqgkZ39pwk4qr-EJwbW8-13" value="1..3" style="edgeLabel;resizable=0;html=1;;align=right;verticalAlign=bottom;" connectable="0" vertex="1" parent="DqgkZ39pwk4qr-EJwbW8-11">
          <mxGeometry x="1" relative="1" as="geometry">
            <mxPoint x="-10" y="-5" as="offset" />
          </mxGeometry>
        </mxCell>
        <mxCell id="DqgkZ39pwk4qr-EJwbW8-14" value="" style="endArrow=none;html=1;rounded=0;exitX=0.5;exitY=0;exitDx=0;exitDy=0;entryX=0.5;entryY=1;entryDx=0;entryDy=0;startFill=0;" edge="1" parent="1" source="DqgkZ39pwk4qr-EJwbW8-3" target="DqgkZ39pwk4qr-EJwbW8-2">
          <mxGeometry relative="1" as="geometry">
            <mxPoint x="180" y="455" as="sourcePoint" />
            <mxPoint x="180" y="370" as="targetPoint" />
          </mxGeometry>
        </mxCell>
        <mxCell id="DqgkZ39pwk4qr-EJwbW8-15" value="0..N" style="edgeLabel;resizable=0;html=1;;align=left;verticalAlign=bottom;" connectable="0" vertex="1" parent="DqgkZ39pwk4qr-EJwbW8-14">
          <mxGeometry x="-1" relative="1" as="geometry">
            <mxPoint x="10" y="-4" as="offset" />
          </mxGeometry>
        </mxCell>
        <mxCell id="DqgkZ39pwk4qr-EJwbW8-16" value="1" style="edgeLabel;resizable=0;html=1;;align=right;verticalAlign=bottom;" connectable="0" vertex="1" parent="DqgkZ39pwk4qr-EJwbW8-14">
          <mxGeometry x="1" relative="1" as="geometry">
            <mxPoint x="30" y="21" as="offset" />
          </mxGeometry>
        </mxCell>
        <mxCell id="DqgkZ39pwk4qr-EJwbW8-17" value="" style="endArrow=none;html=1;rounded=0;exitX=0.5;exitY=0;exitDx=0;exitDy=0;entryX=0.5;entryY=1;entryDx=0;entryDy=0;startFill=0;" edge="1" parent="1" source="DqgkZ39pwk4qr-EJwbW8-2" target="DqgkZ39pwk4qr-EJwbW8-1">
          <mxGeometry relative="1" as="geometry">
            <mxPoint x="390" y="290" as="sourcePoint" />
            <mxPoint x="390" y="205" as="targetPoint" />
          </mxGeometry>
        </mxCell>
        <mxCell id="DqgkZ39pwk4qr-EJwbW8-18" value="0..N" style="edgeLabel;resizable=0;html=1;;align=left;verticalAlign=bottom;" connectable="0" vertex="1" parent="DqgkZ39pwk4qr-EJwbW8-17">
          <mxGeometry x="-1" relative="1" as="geometry">
            <mxPoint x="10" y="-4" as="offset" />
          </mxGeometry>
        </mxCell>
        <mxCell id="DqgkZ39pwk4qr-EJwbW8-19" value="1" style="edgeLabel;resizable=0;html=1;;align=right;verticalAlign=bottom;" connectable="0" vertex="1" parent="DqgkZ39pwk4qr-EJwbW8-17">
          <mxGeometry x="1" relative="1" as="geometry">
            <mxPoint x="30" y="21" as="offset" />
          </mxGeometry>
        </mxCell>
        <mxCell id="DqgkZ39pwk4qr-EJwbW8-20" value="instructor" style="edgeLabel;html=1;align=center;verticalAlign=middle;resizable=0;points=[];" vertex="1" connectable="0" parent="DqgkZ39pwk4qr-EJwbW8-17">
          <mxGeometry x="0.2" y="1" relative="1" as="geometry">
            <mxPoint as="offset" />
          </mxGeometry>
        </mxCell>
        <mxCell id="DqgkZ39pwk4qr-EJwbW8-21" value="Note: represented as JSON objects within the resources field" style="shape=note;size=15;align=left;spacingLeft=10;html=1;whiteSpace=wrap;" vertex="1" parent="1">
          <mxGeometry x="470" y="730" width="180" height="60" as="geometry" />
        </mxCell>
        <mxCell id="DqgkZ39pwk4qr-EJwbW8-22" value="" style="edgeStyle=none;endArrow=none;exitX=0.4;exitY=0;dashed=1;html=1;rounded=0;" edge="1" source="DqgkZ39pwk4qr-EJwbW8-21" parent="1" target="DqgkZ39pwk4qr-EJwbW8-10">
          <mxGeometry x="1" relative="1" as="geometry">
            <mxPoint x="150" y="640" as="targetPoint" />
          </mxGeometry>
        </mxCell>
        <mxCell id="DqgkZ39pwk4qr-EJwbW8-24" value="Purchasable" style="rounded=0;whiteSpace=wrap;html=1;" vertex="1" parent="1">
          <mxGeometry x="-30" y="290" width="120" height="60" as="geometry" />
        </mxCell>
        <mxCell id="DqgkZ39pwk4qr-EJwbW8-25" value="" style="endArrow=none;html=1;rounded=0;exitX=0;exitY=0.5;exitDx=0;exitDy=0;entryX=1;entryY=0.5;entryDx=0;entryDy=0;startFill=0;" edge="1" parent="1" source="DqgkZ39pwk4qr-EJwbW8-2" target="DqgkZ39pwk4qr-EJwbW8-24">
          <mxGeometry relative="1" as="geometry">
            <mxPoint x="190" y="440" as="sourcePoint" />
            <mxPoint x="190" y="380" as="targetPoint" />
          </mxGeometry>
        </mxCell>
        <mxCell id="DqgkZ39pwk4qr-EJwbW8-26" value="0..1" style="edgeLabel;resizable=0;html=1;;align=left;verticalAlign=bottom;" connectable="0" vertex="1" parent="DqgkZ39pwk4qr-EJwbW8-25">
          <mxGeometry x="-1" relative="1" as="geometry">
            <mxPoint x="-30" y="20" as="offset" />
          </mxGeometry>
        </mxCell>
        <mxCell id="DqgkZ39pwk4qr-EJwbW8-27" value="1" style="edgeLabel;resizable=0;html=1;;align=right;verticalAlign=bottom;" connectable="0" vertex="1" parent="DqgkZ39pwk4qr-EJwbW8-25">
          <mxGeometry x="1" relative="1" as="geometry">
            <mxPoint x="30" y="21" as="offset" />
          </mxGeometry>
        </mxCell>
        <mxCell id="DqgkZ39pwk4qr-EJwbW8-28" value="" style="endArrow=none;html=1;rounded=0;exitX=0;exitY=0.5;exitDx=0;exitDy=0;entryX=0.5;entryY=1;entryDx=0;entryDy=0;startFill=0;" edge="1" parent="1" source="DqgkZ39pwk4qr-EJwbW8-3" target="DqgkZ39pwk4qr-EJwbW8-24">
          <mxGeometry relative="1" as="geometry">
            <mxPoint x="210" y="400" as="sourcePoint" />
            <mxPoint x="70" y="400" as="targetPoint" />
            <Array as="points">
              <mxPoint x="30" y="520" />
            </Array>
          </mxGeometry>
        </mxCell>
        <mxCell id="DqgkZ39pwk4qr-EJwbW8-29" value="0..1" style="edgeLabel;resizable=0;html=1;;align=left;verticalAlign=bottom;" connectable="0" vertex="1" parent="DqgkZ39pwk4qr-EJwbW8-28">
          <mxGeometry x="-1" relative="1" as="geometry">
            <mxPoint x="-30" y="20" as="offset" />
          </mxGeometry>
        </mxCell>
        <mxCell id="DqgkZ39pwk4qr-EJwbW8-30" value="1" style="edgeLabel;resizable=0;html=1;;align=right;verticalAlign=bottom;" connectable="0" vertex="1" parent="DqgkZ39pwk4qr-EJwbW8-28">
          <mxGeometry x="1" relative="1" as="geometry">
            <mxPoint x="30" y="21" as="offset" />
          </mxGeometry>
        </mxCell>
        <mxCell id="DqgkZ39pwk4qr-EJwbW8-31" value="" style="endArrow=none;html=1;rounded=0;exitX=0;exitY=0.5;exitDx=0;exitDy=0;entryX=0.5;entryY=1;entryDx=0;entryDy=0;startFill=0;" edge="1" parent="1" source="DqgkZ39pwk4qr-EJwbW8-4" target="DqgkZ39pwk4qr-EJwbW8-24">
          <mxGeometry relative="1" as="geometry">
            <mxPoint x="190" y="580" as="sourcePoint" />
            <mxPoint x="-10" y="490" as="targetPoint" />
            <Array as="points">
              <mxPoint x="30" y="665" />
            </Array>
          </mxGeometry>
        </mxCell>
        <mxCell id="DqgkZ39pwk4qr-EJwbW8-32" value="0..1" style="edgeLabel;resizable=0;html=1;;align=left;verticalAlign=bottom;" connectable="0" vertex="1" parent="DqgkZ39pwk4qr-EJwbW8-31">
          <mxGeometry x="-1" relative="1" as="geometry">
            <mxPoint x="-30" y="20" as="offset" />
          </mxGeometry>
        </mxCell>
        <mxCell id="DqgkZ39pwk4qr-EJwbW8-33" value="1" style="edgeLabel;resizable=0;html=1;;align=right;verticalAlign=bottom;" connectable="0" vertex="1" parent="DqgkZ39pwk4qr-EJwbW8-31">
          <mxGeometry x="1" relative="1" as="geometry">
            <mxPoint x="30" y="21" as="offset" />
          </mxGeometry>
        </mxCell>
        <mxCell id="DqgkZ39pwk4qr-EJwbW8-35" value="Constraint: a purchasable is attached to only one, either course, module or lecture. Only purchasables are published to students." style="shape=note;size=15;align=left;spacingLeft=10;html=1;whiteSpace=wrap;" vertex="1" parent="1">
          <mxGeometry x="60" y="390" width="190" height="105" as="geometry" />
        </mxCell>
        <mxCell id="DqgkZ39pwk4qr-EJwbW8-36" value="" style="edgeStyle=none;endArrow=none;exitX=0.4;exitY=0;dashed=1;html=1;rounded=0;" edge="1" parent="1" source="DqgkZ39pwk4qr-EJwbW8-35" target="DqgkZ39pwk4qr-EJwbW8-24">
          <mxGeometry x="1" relative="1" as="geometry">
            <mxPoint x="-73" y="410" as="targetPoint" />
          </mxGeometry>
        </mxCell>
        <mxCell id="DqgkZ39pwk4qr-EJwbW8-37" value="Note: represented as JSON objects within the resources field" style="shape=note;size=15;align=left;spacingLeft=10;html=1;whiteSpace=wrap;" vertex="1" parent="1">
          <mxGeometry x="460" y="285" width="180" height="60" as="geometry" />
        </mxCell>
        <mxCell id="DqgkZ39pwk4qr-EJwbW8-38" value="" style="edgeStyle=none;endArrow=none;exitX=0.4;exitY=0;dashed=1;html=1;rounded=0;" edge="1" parent="1" source="DqgkZ39pwk4qr-EJwbW8-37">
          <mxGeometry x="1" relative="1" as="geometry">
            <mxPoint x="536" y="250" as="targetPoint" />
          </mxGeometry>
        </mxCell>
        <mxCell id="DqgkZ39pwk4qr-EJwbW8-39" value="" style="endArrow=none;html=1;rounded=0;exitX=0;exitY=0.75;exitDx=0;exitDy=0;entryX=0.5;entryY=0;entryDx=0;entryDy=0;startFill=0;" edge="1" parent="1" source="DqgkZ39pwk4qr-EJwbW8-1" target="DqgkZ39pwk4qr-EJwbW8-24">
          <mxGeometry relative="1" as="geometry">
            <mxPoint x="200" y="190" as="sourcePoint" />
            <mxPoint x="60" y="190" as="targetPoint" />
            <Array as="points">
              <mxPoint x="30" y="190" />
            </Array>
          </mxGeometry>
        </mxCell>
        <mxCell id="DqgkZ39pwk4qr-EJwbW8-40" value="1" style="edgeLabel;resizable=0;html=1;;align=left;verticalAlign=bottom;" connectable="0" vertex="1" parent="DqgkZ39pwk4qr-EJwbW8-39">
          <mxGeometry x="-1" relative="1" as="geometry">
            <mxPoint x="-30" y="20" as="offset" />
          </mxGeometry>
        </mxCell>
        <mxCell id="DqgkZ39pwk4qr-EJwbW8-41" value="1" style="edgeLabel;resizable=0;html=1;;align=right;verticalAlign=bottom;" connectable="0" vertex="1" parent="DqgkZ39pwk4qr-EJwbW8-39">
          <mxGeometry x="1" relative="1" as="geometry">
            <mxPoint y="-10" as="offset" />
          </mxGeometry>
        </mxCell>
        <mxCell id="DqgkZ39pwk4qr-EJwbW8-45" value="instructor" style="edgeLabel;html=1;align=center;verticalAlign=middle;resizable=0;points=[];" vertex="1" connectable="0" parent="DqgkZ39pwk4qr-EJwbW8-39">
          <mxGeometry x="0.1576" y="1" relative="1" as="geometry">
            <mxPoint as="offset" />
          </mxGeometry>
        </mxCell>
        <mxCell id="DqgkZ39pwk4qr-EJwbW8-42" value="Note: redundant link with instructor to reduce DB overhead" style="shape=note;size=15;align=left;spacingLeft=10;html=1;whiteSpace=wrap;" vertex="1" parent="1">
          <mxGeometry x="80" y="220" width="160" height="50" as="geometry" />
        </mxCell>
        <mxCell id="DqgkZ39pwk4qr-EJwbW8-43" value="" style="edgeStyle=none;endArrow=none;exitX=0.5;exitY=1;dashed=1;html=1;rounded=0;exitDx=0;exitDy=0;exitPerimeter=0;entryX=0.5;entryY=0;entryDx=0;entryDy=0;" edge="1" parent="1" source="DqgkZ39pwk4qr-EJwbW8-42" target="DqgkZ39pwk4qr-EJwbW8-24">
          <mxGeometry x="1" relative="1" as="geometry">
            <mxPoint x="130.65306122448987" y="267.5" as="targetPoint" />
          </mxGeometry>
        </mxCell>
        <mxCell id="DqgkZ39pwk4qr-EJwbW8-44" value="Promotion" style="rounded=0;whiteSpace=wrap;html=1;" vertex="1" parent="1">
          <mxGeometry x="20" y="110" width="120" height="60" as="geometry" />
        </mxCell>
        <mxCell id="DqgkZ39pwk4qr-EJwbW8-46" value="" style="endArrow=none;html=1;rounded=0;exitX=1;exitY=0.5;exitDx=0;exitDy=0;startFill=0;entryX=0;entryY=0.25;entryDx=0;entryDy=0;" edge="1" parent="1" source="DqgkZ39pwk4qr-EJwbW8-44" target="DqgkZ39pwk4qr-EJwbW8-1">
          <mxGeometry relative="1" as="geometry">
            <mxPoint x="340" y="10" as="sourcePoint" />
            <mxPoint x="320" y="80" as="targetPoint" />
            <Array as="points" />
          </mxGeometry>
        </mxCell>
        <mxCell id="DqgkZ39pwk4qr-EJwbW8-47" value="0..N" style="edgeLabel;resizable=0;html=1;;align=left;verticalAlign=bottom;" connectable="0" vertex="1" parent="DqgkZ39pwk4qr-EJwbW8-46">
          <mxGeometry x="-1" relative="1" as="geometry">
            <mxPoint as="offset" />
          </mxGeometry>
        </mxCell>
        <mxCell id="DqgkZ39pwk4qr-EJwbW8-48" value="1" style="edgeLabel;resizable=0;html=1;;align=right;verticalAlign=bottom;" connectable="0" vertex="1" parent="DqgkZ39pwk4qr-EJwbW8-46">
          <mxGeometry x="1" relative="1" as="geometry">
            <mxPoint x="-10" y="3" as="offset" />
          </mxGeometry>
        </mxCell>
        <mxCell id="DqgkZ39pwk4qr-EJwbW8-49" value="owner" style="edgeLabel;html=1;align=center;verticalAlign=middle;resizable=0;points=[];" vertex="1" connectable="0" parent="DqgkZ39pwk4qr-EJwbW8-46">
          <mxGeometry x="0.1576" y="1" relative="1" as="geometry">
            <mxPoint as="offset" />
          </mxGeometry>
        </mxCell>
        <mxCell id="DqgkZ39pwk4qr-EJwbW8-50" value="" style="endArrow=none;html=1;rounded=0;exitX=0;exitY=0.5;exitDx=0;exitDy=0;entryX=0.25;entryY=0;entryDx=0;entryDy=0;startFill=0;" edge="1" parent="1" source="DqgkZ39pwk4qr-EJwbW8-44" target="DqgkZ39pwk4qr-EJwbW8-24">
          <mxGeometry relative="1" as="geometry">
            <mxPoint x="-20" y="224.5" as="sourcePoint" />
            <mxPoint x="-160" y="224.5" as="targetPoint" />
            <Array as="points">
              <mxPoint y="140" />
            </Array>
          </mxGeometry>
        </mxCell>
        <mxCell id="DqgkZ39pwk4qr-EJwbW8-51" value="0..1" style="edgeLabel;resizable=0;html=1;;align=left;verticalAlign=bottom;" connectable="0" vertex="1" parent="DqgkZ39pwk4qr-EJwbW8-50">
          <mxGeometry x="-1" relative="1" as="geometry">
            <mxPoint x="-30" y="20" as="offset" />
          </mxGeometry>
        </mxCell>
        <mxCell id="DqgkZ39pwk4qr-EJwbW8-52" value="1" style="edgeLabel;resizable=0;html=1;;align=right;verticalAlign=bottom;" connectable="0" vertex="1" parent="DqgkZ39pwk4qr-EJwbW8-50">
          <mxGeometry x="1" relative="1" as="geometry">
            <mxPoint x="-10" y="-10" as="offset" />
          </mxGeometry>
        </mxCell>
        <mxCell id="DqgkZ39pwk4qr-EJwbW8-53" value="Enrollment" style="rounded=0;whiteSpace=wrap;html=1;" vertex="1" parent="1">
          <mxGeometry x="-290" y="40" width="120" height="60" as="geometry" />
        </mxCell>
        <mxCell id="DqgkZ39pwk4qr-EJwbW8-54" value="" style="endArrow=none;html=1;rounded=0;exitX=0.5;exitY=0;exitDx=0;exitDy=0;entryX=1;entryY=0.5;entryDx=0;entryDy=0;startFill=0;" edge="1" parent="1" source="DqgkZ39pwk4qr-EJwbW8-1" target="DqgkZ39pwk4qr-EJwbW8-53">
          <mxGeometry relative="1" as="geometry">
            <mxPoint x="-90" y="150" as="sourcePoint" />
            <mxPoint x="-110" y="300" as="targetPoint" />
            <Array as="points">
              <mxPoint x="320" y="70" />
            </Array>
          </mxGeometry>
        </mxCell>
        <mxCell id="DqgkZ39pwk4qr-EJwbW8-55" value="1" style="edgeLabel;resizable=0;html=1;;align=left;verticalAlign=bottom;" connectable="0" vertex="1" parent="DqgkZ39pwk4qr-EJwbW8-54">
          <mxGeometry x="-1" relative="1" as="geometry">
            <mxPoint as="offset" />
          </mxGeometry>
        </mxCell>
        <mxCell id="DqgkZ39pwk4qr-EJwbW8-56" value="0..N" style="edgeLabel;resizable=0;html=1;;align=right;verticalAlign=bottom;" connectable="0" vertex="1" parent="DqgkZ39pwk4qr-EJwbW8-54">
          <mxGeometry x="1" relative="1" as="geometry">
            <mxPoint x="30" as="offset" />
          </mxGeometry>
        </mxCell>
        <mxCell id="DqgkZ39pwk4qr-EJwbW8-57" value="student" style="edgeLabel;html=1;align=center;verticalAlign=middle;resizable=0;points=[];" vertex="1" connectable="0" parent="DqgkZ39pwk4qr-EJwbW8-54">
          <mxGeometry x="-0.0185" y="1" relative="1" as="geometry">
            <mxPoint as="offset" />
          </mxGeometry>
        </mxCell>
        <mxCell id="DqgkZ39pwk4qr-EJwbW8-58" value="" style="endArrow=none;html=1;rounded=0;exitX=0.5;exitY=1;exitDx=0;exitDy=0;entryX=0;entryY=0.5;entryDx=0;entryDy=0;startFill=0;" edge="1" parent="1" source="DqgkZ39pwk4qr-EJwbW8-53" target="DqgkZ39pwk4qr-EJwbW8-24">
          <mxGeometry relative="1" as="geometry">
            <mxPoint x="-260" y="170" as="sourcePoint" />
            <mxPoint x="-280" y="320" as="targetPoint" />
            <Array as="points">
              <mxPoint x="-230" y="320" />
            </Array>
          </mxGeometry>
        </mxCell>
        <mxCell id="DqgkZ39pwk4qr-EJwbW8-59" value="0..N" style="edgeLabel;resizable=0;html=1;;align=left;verticalAlign=bottom;" connectable="0" vertex="1" parent="DqgkZ39pwk4qr-EJwbW8-58">
          <mxGeometry x="-1" relative="1" as="geometry">
            <mxPoint x="-30" y="20" as="offset" />
          </mxGeometry>
        </mxCell>
        <mxCell id="DqgkZ39pwk4qr-EJwbW8-60" value="1" style="edgeLabel;resizable=0;html=1;;align=right;verticalAlign=bottom;" connectable="0" vertex="1" parent="DqgkZ39pwk4qr-EJwbW8-58">
          <mxGeometry x="1" relative="1" as="geometry">
            <mxPoint x="-10" y="-10" as="offset" />
          </mxGeometry>
        </mxCell>
      </root>
    </mxGraphModel>
  </diagram>
</mxfile>
